<svg width="39" height="17" viewBox="0 0 39 17" fill="none" xmlns="http://www.w3.org/2000/svg">
<path d="M39 8.1179C38.7961 8.56642 38.5049 8.99892 38.1262 9.40739C36.0707 11.6259 31.6727 13.0075 26.6546 13.0075C21.6117 13.0075 17.2302 11.634 15.2205 9.42341C14.8627 9.02695 14.5839 8.61047 14.3925 8.18198C9.54508 6.10759 4.84743 10.2764 0 8.202C0 8.55841 0 11.7461 0 12.1025C4.84743 14.1769 9.69487 10.0281 14.5423 12.1025C14.5423 12.0905 14.5423 12.0785 14.5423 12.0624C14.5548 12.0985 14.5631 12.1345 14.5756 12.1706C14.9542 13.2758 15.8988 14.1208 16.889 14.7375C19.9182 16.6277 23.8835 17.0842 27.4119 16.9881C30.724 16.896 34.527 16.2833 37.1775 14.2089C38.2885 13.3399 39.0208 12.2186 38.9958 10.817C38.9958 10.4166 39.0042 10.0161 38.9958 9.61563C38.9917 9.11505 38.9958 8.61848 39 8.1179Z" fill="#ED8F1D"/>
<path d="M26.6505 12.5068C33.8613 12.5068 39.3911 9.68758 38.975 6.21958C38.5589 2.75159 33.0791 -0.0396205 26.7628 0.000425582C20.4424 0.0364671 14.9168 2.85972 14.4383 6.28766C13.9598 9.71561 19.4397 12.5068 26.6505 12.5068ZM26.7004 6.80025C26.1054 6.80025 25.6269 6.55597 25.6311 6.25563C25.6352 5.95528 26.1221 5.70699 26.7087 5.70699C27.2996 5.70699 27.7781 5.94727 27.7781 6.25162C27.7781 6.55197 27.2954 6.80025 26.7004 6.80025ZM32.3592 4.00504C33.5617 3.79279 34.8932 4.13719 35.3426 4.77392C35.7961 5.41065 35.1761 6.09544 33.9445 6.30769C32.7087 6.51593 31.3523 6.17153 30.9237 5.5388C30.5076 4.90207 31.1526 4.21728 32.3592 4.00504ZM32.7587 8.35404C33.5784 8.89466 33.3828 9.65154 32.3051 10.048C31.2191 10.4404 29.6671 10.3243 28.8558 9.78369C28.0527 9.24306 28.2899 8.48619 29.3675 8.09374C30.4369 7.69729 31.9473 7.81342 32.7587 8.35404ZM26.7462 1.55822C27.9903 1.55021 29.0097 2.08683 29.018 2.7556C29.0305 3.42437 28.0028 3.96899 26.7212 3.973C25.4438 3.977 24.4244 3.44039 24.4494 2.77562C24.4743 2.11086 25.5021 1.56222 26.7462 1.55822ZM24.4951 9.78769C23.6754 10.3283 22.1234 10.4485 21.0416 10.06C19.9681 9.67156 19.785 8.91469 20.6172 8.37807C21.4369 7.83745 22.9515 7.7133 24.0125 8.10576C25.0818 8.4902 25.3065 9.24707 24.4951 9.78769ZM18.0915 4.82999C18.5534 4.19726 19.889 3.84485 21.0874 4.04508C22.294 4.24531 22.9265 4.9261 22.4938 5.55882C22.0569 6.19556 20.6921 6.54396 19.4605 6.33972C18.2372 6.1435 17.6255 5.46672 18.0915 4.82999Z" fill="#ED8F1D"/>
</svg>
