<svg width="138" height="38" viewBox="0 0 138 38" fill="none" xmlns="http://www.w3.org/2000/svg">
<path d="M39 18.1179C38.7961 18.5664 38.5049 18.9989 38.1262 19.4074C36.0707 21.6259 31.6727 23.0075 26.6546 23.0075C21.6117 23.0075 17.2302 21.634 15.2205 19.4234C14.8627 19.0269 14.5839 18.6105 14.3925 18.182C9.54508 16.1076 4.84743 20.2764 0 18.202C0 18.5584 0 21.7461 0 22.1025C4.84743 24.1769 9.69487 20.0281 14.5423 22.1025C14.5423 22.0905 14.5423 22.0785 14.5423 22.0624C14.5548 22.0985 14.5631 22.1345 14.5756 22.1706C14.9542 23.2758 15.8988 24.1208 16.889 24.7375C19.9182 26.6277 23.8835 27.0842 27.4119 26.9881C30.724 26.896 34.527 26.2833 37.1775 24.2089C38.2885 23.3399 39.0208 22.2186 38.9958 20.817C38.9958 20.4166 39.0042 20.0161 38.9958 19.6156C38.9917 19.1151 38.9958 18.6185 39 18.1179Z" fill="#ED8F1D"/>
<path d="M26.6505 22.5068C33.8613 22.5068 39.3911 19.6876 38.975 16.2196C38.5589 12.7516 33.0791 9.96038 26.7628 10.0004C20.4424 10.0365 14.9168 12.8597 14.4383 16.2877C13.9598 19.7156 19.4397 22.5068 26.6505 22.5068ZM26.7004 16.8003C26.1054 16.8003 25.6269 16.556 25.6311 16.2556C25.6352 15.9553 26.1221 15.707 26.7087 15.707C27.2996 15.707 27.7781 15.9473 27.7781 16.2516C27.7781 16.552 27.2954 16.8003 26.7004 16.8003ZM32.3592 14.005C33.5617 13.7928 34.8932 14.1372 35.3426 14.7739C35.7961 15.4107 35.1761 16.0954 33.9445 16.3077C32.7087 16.5159 31.3523 16.1715 30.9237 15.5388C30.5076 14.9021 31.1526 14.2173 32.3592 14.005ZM32.7587 18.354C33.5784 18.8947 33.3828 19.6515 32.3051 20.048C31.2191 20.4404 29.6671 20.3243 28.8558 19.7837C28.0527 19.2431 28.2899 18.4862 29.3675 18.0937C30.4369 17.6973 31.9473 17.8134 32.7587 18.354ZM26.7462 11.5582C27.9903 11.5502 29.0097 12.0868 29.018 12.7556C29.0305 13.4244 28.0028 13.969 26.7212 13.973C25.4438 13.977 24.4244 13.4404 24.4494 12.7756C24.4743 12.1109 25.5021 11.5622 26.7462 11.5582ZM24.4951 19.7877C23.6754 20.3283 22.1234 20.4485 21.0416 20.06C19.9681 19.6716 19.785 18.9147 20.6172 18.3781C21.4369 17.8374 22.9515 17.7133 24.0125 18.1058C25.0818 18.4902 25.3065 19.2471 24.4951 19.7877ZM18.0915 14.83C18.5534 14.1973 19.889 13.8449 21.0874 14.0451C22.294 14.2453 22.9265 14.9261 22.4938 15.5588C22.0569 16.1956 20.6921 16.544 19.4605 16.3397C18.2372 16.1435 17.6255 15.4667 18.0915 14.83Z" fill="#ED8F1D"/>
<path d="M55.2644 29.3C54.5844 27.64 53.9044 25.99 53.2244 24.35C52.5644 22.71 51.8944 21.07 51.2144 19.43C51.0544 19.05 50.8444 18.52 50.5844 17.84C50.3444 17.14 50.0844 16.34 49.8044 15.44C49.5444 14.54 49.3044 13.61 49.0844 12.65C49.1244 13.77 49.1544 14.83 49.1744 15.83C49.1944 16.81 49.1944 17.75 49.1744 18.65C49.1744 19.09 49.1744 19.54 49.1744 20C49.1744 20.46 49.1644 20.92 49.1444 21.38C49.1444 21.82 49.1444 22.27 49.1444 22.73C49.1444 23.17 49.1444 23.62 49.1444 24.08C49.1444 24.62 49.1244 25.14 49.0844 25.64C49.0644 26.14 49.0344 26.52 48.9944 26.78C49.3344 26.74 49.7444 26.72 50.2244 26.72C50.7244 26.7 51.0744 26.69 51.2744 26.69V29H44.4344V27.02C44.8944 27 45.2744 26.94 45.5744 26.84C45.8944 26.74 46.1344 26.51 46.2944 26.15C46.4744 25.79 46.5644 25.21 46.5644 24.41L46.7444 12.92C46.7644 12.38 46.7844 11.86 46.8044 11.36C46.8244 10.86 46.8444 10.48 46.8644 10.22C46.5444 10.24 46.1444 10.26 45.6644 10.28C45.1844 10.28 44.8344 10.29 44.6144 10.31V8H51.2444L55.7744 19.61C55.9544 20.07 56.1544 20.61 56.3744 21.23C56.5944 21.83 56.8044 22.42 57.0044 23C57.2044 23.56 57.3544 24.01 57.4544 24.35H57.4844C57.7444 23.65 57.9844 22.97 58.2044 22.31C58.4244 21.65 58.6544 21.01 58.8944 20.39C59.6744 18.31 60.4444 16.24 61.2044 14.18C61.9844 12.12 62.7644 10.06 63.5444 8H70.4744V9.98C70.0344 10 69.6444 10.06 69.3044 10.16C68.9644 10.26 68.7044 10.49 68.5244 10.85C68.3644 11.19 68.2944 11.77 68.3144 12.59L68.7644 24.08C68.8044 24.62 68.8044 25.14 68.7644 25.64C68.7244 26.14 68.6844 26.52 68.6444 26.78C68.9844 26.74 69.3944 26.72 69.8744 26.72C70.3744 26.7 70.7244 26.69 70.9244 26.69V29H62.5844V27.02C63.0444 27 63.4344 26.94 63.7544 26.84C64.0944 26.74 64.3444 26.51 64.5044 26.15C64.6844 25.79 64.7544 25.21 64.7144 24.41L64.4744 18.05C64.4744 17.81 64.4544 17.4 64.4144 16.82C64.3744 16.22 64.3344 15.57 64.2944 14.87C64.2744 14.15 64.2544 13.48 64.2344 12.86C64.1744 13 64.1144 13.14 64.0544 13.28C63.9944 13.4 63.9444 13.53 63.9044 13.67L58.0544 29.3H55.2644ZM80.081 29.48C78.641 29.48 77.341 29.17 76.181 28.55C75.021 27.93 74.101 27.05 73.421 25.91C72.761 24.75 72.431 23.39 72.431 21.83C72.431 20.17 72.771 18.72 73.451 17.48C74.151 16.22 75.071 15.25 76.211 14.57C77.371 13.87 78.631 13.52 79.991 13.52C81.431 13.52 82.721 13.83 83.861 14.45C85.001 15.07 85.901 15.96 86.561 17.12C87.221 18.26 87.551 19.63 87.551 21.23C87.551 22.91 87.231 24.37 86.591 25.61C85.951 26.85 85.071 27.81 83.951 28.49C82.831 29.15 81.541 29.48 80.081 29.48ZM80.201 27.35C81.001 27.33 81.601 27.05 82.001 26.51C82.421 25.97 82.711 25.29 82.871 24.47C83.031 23.65 83.111 22.82 83.111 21.98C83.111 21.24 83.051 20.49 82.931 19.73C82.831 18.97 82.661 18.28 82.421 17.66C82.181 17.04 81.851 16.54 81.431 16.16C81.031 15.78 80.531 15.6 79.931 15.62C79.151 15.64 78.531 15.92 78.071 16.46C77.631 17 77.311 17.68 77.111 18.5C76.931 19.3 76.841 20.14 76.841 21.02C76.841 22.04 76.951 23.04 77.171 24.02C77.391 25 77.741 25.81 78.221 26.45C78.721 27.07 79.381 27.37 80.201 27.35ZM97.0732 29.48C95.6332 29.48 94.3332 29.17 93.1732 28.55C92.0132 27.93 91.0932 27.05 90.4132 25.91C89.7532 24.75 89.4232 23.39 89.4232 21.83C89.4232 20.17 89.7632 18.72 90.4432 17.48C91.1432 16.22 92.0632 15.25 93.2032 14.57C94.3632 13.87 95.6232 13.52 96.9832 13.52C98.4232 13.52 99.7132 13.83 100.853 14.45C101.993 15.07 102.893 15.96 103.553 17.12C104.213 18.26 104.543 19.63 104.543 21.23C104.543 22.91 104.223 24.37 103.583 25.61C102.943 26.85 102.063 27.81 100.943 28.49C99.8232 29.15 98.5332 29.48 97.0732 29.48ZM97.1932 27.35C97.9932 27.33 98.5932 27.05 98.9932 26.51C99.4132 25.97 99.7032 25.29 99.8632 24.47C100.023 23.65 100.103 22.82 100.103 21.98C100.103 21.24 100.043 20.49 99.9232 19.73C99.8232 18.97 99.6532 18.28 99.4132 17.66C99.1732 17.04 98.8432 16.54 98.4232 16.16C98.0232 15.78 97.5232 15.6 96.9232 15.62C96.1432 15.64 95.5232 15.92 95.0632 16.46C94.6232 17 94.3032 17.68 94.1032 18.5C93.9232 19.3 93.8332 20.14 93.8332 21.02C93.8332 22.04 93.9432 23.04 94.1632 24.02C94.3832 25 94.7332 25.81 95.2132 26.45C95.7132 27.07 96.3732 27.37 97.1932 27.35ZM112.12 29.09L107.38 18.68C107.16 18.18 107 17.8 106.9 17.54C106.82 17.28 106.76 17.06 106.72 16.88C106.7 16.68 106.66 16.46 106.6 16.22L105.49 16.28V14H112.51V15.92C112.09 15.94 111.81 16.06 111.67 16.28C111.53 16.5 111.48 16.79 111.52 17.15C111.56 17.49 111.65 17.86 111.79 18.26L113.35 22.1C113.51 22.48 113.67 22.87 113.83 23.27C113.99 23.67 114.15 24.07 114.31 24.47H114.34C114.5 24.05 114.65 23.63 114.79 23.21C114.95 22.79 115.1 22.37 115.24 21.95L116.53 18.29C116.71 17.79 116.87 17.39 117.01 17.09C117.17 16.79 117.34 16.48 117.52 16.16L115.66 16.28V14H121.36V15.92C120.9 16 120.49 16.26 120.13 16.7C119.77 17.12 119.46 17.6 119.2 18.14C118.94 18.66 118.73 19.12 118.57 19.52L114.73 29.09H112.12ZM125.892 37.13C125.132 37.13 124.482 36.9 123.942 36.44C123.422 36 123.162 35.41 123.162 34.67C123.162 34.13 123.332 33.65 123.672 33.23C124.032 32.83 124.492 32.62 125.052 32.6C125.492 32.58 125.862 32.72 126.162 33.02C126.482 33.34 126.642 33.77 126.642 34.31C126.642 34.37 126.642 34.43 126.642 34.49C126.642 34.55 126.632 34.62 126.612 34.7C126.652 34.7 126.702 34.69 126.762 34.67C126.942 34.61 127.132 34.44 127.332 34.16C127.552 33.9 127.762 33.55 127.962 33.11C128.182 32.65 128.392 32.13 128.592 31.55C128.812 30.99 129.002 30.4 129.162 29.78L124.422 20.27C123.862 19.15 123.492 18.31 123.312 17.75C123.152 17.17 123.042 16.66 122.982 16.22L121.602 16.28V14H129.072V15.92C128.332 16 127.922 16.28 127.842 16.76C127.782 17.24 127.872 17.74 128.112 18.26L131.052 24.98C131.252 24.46 131.512 23.66 131.832 22.58C132.152 21.48 132.532 20.29 132.972 19.01C133.052 18.75 133.152 18.45 133.272 18.11C133.412 17.75 133.562 17.4 133.722 17.06C133.882 16.7 134.052 16.41 134.232 16.19L132.522 16.28V14H137.862V15.92C137.242 16.06 136.722 16.44 136.302 17.06C135.902 17.68 135.542 18.44 135.222 19.34L131.472 30.05C130.912 31.67 130.382 33 129.882 34.04C129.382 35.1 128.822 35.88 128.202 36.38C127.582 36.88 126.812 37.13 125.892 37.13Z" fill="#ED8F1D"/>
</svg>
